<svg width="512" height="511" viewBox="0 0 512 511" fill="none" xmlns="http://www.w3.org/2000/svg">
<path d="M187.164 1.40193C172.497 6.33526 164.497 12.6019 153.964 27.5353C141.564 45.2686 129.83 51.6686 105.43 54.0686C85.5636 56.0686 71.8302 63.8019 62.6302 78.0686C56.7636 87.2686 54.6302 94.2019 53.2969 109.135C51.1636 131.135 43.8302 143.135 23.5636 157.269C6.76358 169.002 -0.969756 185.002 0.0969104 205.402C0.630244 214.602 1.56358 218.202 6.23024 228.469C15.8302 249.402 15.8302 263.535 6.23024 284.202C0.630244 296.069 0.49691 296.602 0.49691 310.335C0.49691 322.735 0.89691 325.135 4.09691 332.069C9.29691 343.002 14.7636 349.535 24.3636 355.935C44.4969 369.402 50.8969 380.069 53.1636 403.269C54.7636 418.602 58.2302 428.602 65.1636 437.802C75.1636 450.602 87.4302 456.469 107.83 458.335C114.897 459.002 123.83 460.735 127.964 462.335C137.697 466.069 147.83 475.002 155.43 486.469C162.364 497.002 168.097 502.202 178.497 507.402C185.164 510.602 187.297 511.002 201.164 511.002H216.497L229.164 505.002C241.697 499.135 241.964 499.002 255.83 499.002C269.697 499.002 269.964 499.135 282.497 505.002C295.164 511.002 295.164 511.002 309.83 511.002C322.897 511.002 325.297 510.602 332.097 507.402C341.297 503.135 350.497 494.869 357.297 484.869C364.097 474.735 374.897 465.535 383.83 462.202C387.964 460.602 397.03 458.869 404.23 458.202C434.897 455.535 454.23 437.535 457.43 408.469C459.164 392.335 461.03 385.002 465.297 377.535C469.43 370.202 479.697 359.935 485.964 356.602C492.23 353.402 503.697 340.335 507.564 332.069C510.764 325.135 511.164 322.735 511.164 310.335C511.164 296.602 511.03 296.069 505.564 284.202C495.697 263.269 495.697 249.669 505.297 228.869C511.03 216.602 511.164 216.069 511.164 202.335C511.164 189.402 510.897 187.669 507.03 179.669C501.697 168.335 496.63 162.735 483.964 153.935C467.03 141.935 460.497 130.735 458.364 109.535C454.897 75.4019 437.43 57.1353 405.297 54.0686C382.764 51.8019 370.63 45.5353 359.964 30.6019C349.43 15.6686 344.097 10.6019 333.43 5.26859C323.697 0.601927 322.63 0.33526 309.964 0.33526C296.897 0.33526 296.097 0.468593 284.097 6.20193C261.43 16.7353 250.23 16.6019 227.164 6.06859C216.497 1.13526 213.83 0.468593 203.83 0.0685931C196.897 -0.198074 190.364 0.33526 187.164 1.40193ZM245.164 52.8686C245.164 55.6686 242.63 57.0019 237.697 57.0019C234.364 57.0019 233.83 57.9353 235.697 60.8686C236.497 62.0686 238.097 62.3353 240.764 61.8019C244.097 61.0019 244.897 61.4019 245.564 63.5353C246.097 65.6686 245.297 66.3353 241.03 67.0019C237.164 67.6686 235.83 68.4686 235.83 70.4686C235.83 72.6019 236.764 73.0019 241.83 73.0019C246.897 73.0019 247.83 73.4019 247.83 75.6686C247.83 77.6686 246.897 78.3353 244.23 78.3353C242.097 78.3353 238.364 78.7353 235.564 79.1353L230.764 79.9353L229.697 67.5353C229.03 60.6019 228.497 54.3353 228.497 53.6686C228.497 52.8686 231.564 51.9353 235.164 51.5353C238.897 51.1353 242.63 50.6019 243.564 50.6019C244.364 50.4686 245.164 51.5353 245.164 52.8686ZM273.964 58.4686L280.497 66.7353L280.897 62.2019C281.564 53.8019 282.364 51.6686 285.297 51.6686C287.964 51.6686 288.097 52.0686 287.164 64.6019C286.63 71.8019 285.697 78.2019 285.164 78.7353C284.63 79.4019 281.297 76.2019 277.697 71.8019C270.764 63.2686 269.164 63.2686 269.164 71.8019C269.164 77.4019 268.497 78.3353 265.164 77.4019C263.03 76.8686 262.63 75.8019 263.164 71.1353C263.564 68.2019 264.097 62.2019 264.497 57.9353C265.03 53.8019 265.83 50.3353 266.364 50.3353C266.897 50.3353 270.364 54.0686 273.964 58.4686ZM324.63 62.4686C328.764 66.3353 329.697 71.6686 327.297 77.4019C324.764 83.8019 321.03 85.5353 312.097 84.6019C302.764 83.6686 301.697 82.4686 303.564 76.0686C304.364 73.2686 305.964 67.5353 307.164 63.4019L309.297 55.8019L315.43 57.6686C318.764 58.7353 322.897 60.8686 324.63 62.4686ZM208.23 59.6686C215.297 65.2686 213.564 74.0686 204.764 76.8686C200.897 78.2019 200.364 78.8686 200.897 82.2019C201.297 85.1353 200.764 86.0686 198.764 86.6019C196.497 87.2686 195.83 86.0686 193.164 76.4686C188.897 60.4686 188.897 60.7353 195.83 58.8686C204.097 56.6019 204.364 56.6019 208.23 59.6686ZM171.697 71.6686C173.03 72.3353 174.897 74.7353 175.83 77.0019C177.164 80.3353 177.164 81.5353 175.297 84.3353C173.964 86.2019 171.564 88.4686 169.697 89.2686C166.097 90.8686 165.83 91.9353 167.83 95.6686C168.897 97.6686 168.63 98.4686 166.497 99.6686C163.964 101.002 163.297 100.202 157.964 88.7353L152.23 76.3353L157.697 73.4019C163.697 70.2019 167.964 69.6686 171.697 71.6686ZM361.164 78.6019C361.164 81.0019 360.764 87.9353 360.23 93.9353C359.564 104.069 359.297 104.735 357.03 103.535C355.564 102.869 354.497 101.135 354.497 99.8019C354.497 96.6019 344.63 91.9353 342.23 94.0686C341.03 95.0019 339.697 95.0019 337.564 93.9353C334.764 92.3353 335.164 91.9353 345.564 83.4019C358.23 73.1353 361.164 72.2019 361.164 78.6019ZM140.63 95.8019C143.83 100.469 146.497 105.402 146.497 107.002C146.497 110.202 140.63 116.202 136.097 117.669C131.83 118.869 127.964 116.069 121.83 107.135C117.164 100.202 116.897 99.4019 118.764 97.4019C120.764 95.5353 121.43 96.0686 126.764 103.535C131.43 110.202 133.164 111.669 135.83 111.402C141.164 110.735 140.764 106.069 134.63 97.5353C129.564 90.4686 129.43 89.8019 131.564 88.2019C132.764 87.2686 133.964 86.7353 134.23 87.0019C134.497 87.2686 137.297 91.1353 140.63 95.8019ZM394.897 96.0686C398.897 99.1353 399.83 100.735 399.83 104.469C399.83 109.535 395.964 114.335 391.83 114.335C389.564 114.335 389.164 115.269 389.164 119.669C389.164 122.602 388.63 125.002 388.097 125.002C385.564 125.002 383.83 121.402 383.83 116.202C383.83 109.135 381.697 107.669 377.964 112.069C375.564 115.135 374.897 115.402 372.897 113.802C370.764 112.202 371.297 111.135 378.63 101.269C383.564 94.7353 387.43 90.7353 388.364 91.2686C389.164 91.6686 392.097 93.8019 394.897 96.0686ZM278.23 104.469C295.43 107.002 317.03 113.935 330.364 121.402C343.83 128.735 364.497 144.469 373.43 154.202C378.497 159.669 381.297 161.669 382.23 160.735C387.164 155.802 389.697 187.402 385.83 208.469C383.83 219.935 383.697 221.535 385.564 223.269C386.897 224.735 388.764 225.002 391.164 224.469C396.364 223.135 408.23 211.402 414.497 201.402C419.964 192.869 423.164 191.269 421.297 198.069C415.164 219.002 382.897 251.669 357.964 262.069C350.097 265.269 348.63 265.402 319.83 265.669C300.23 265.802 288.097 266.469 284.897 267.535C279.564 269.269 271.964 274.869 273.297 276.202C274.63 277.669 282.897 274.469 284.764 271.669C287.297 268.069 291.164 267.935 289.164 271.535C286.897 275.802 287.564 275.669 292.364 270.869C296.764 266.469 297.297 266.335 307.03 266.335H317.164L310.764 274.602C302.63 285.135 299.83 286.602 290.897 285.669C284.364 284.869 281.564 286.202 285.164 288.335C285.83 288.735 290.364 294.469 295.164 301.002C303.964 312.735 307.964 315.669 315.03 315.669C319.964 315.669 327.564 321.402 334.497 330.602C338.23 335.669 342.63 340.469 344.23 341.535C348.364 344.335 371.564 351.402 377.697 351.935L382.897 352.335L374.764 363.135C352.764 392.202 323.03 412.069 289.03 420.335C273.564 424.069 253.164 425.002 253.164 421.935C253.164 420.869 252.63 421.002 251.83 422.335C250.897 423.935 250.497 423.402 250.364 420.335C250.364 416.869 250.097 416.735 249.164 419.002C248.364 420.735 247.964 421.002 247.964 419.669C247.83 417.935 247.697 417.935 246.497 419.669C245.43 421.269 245.164 421.135 245.164 418.735C245.164 413.669 243.697 411.402 241.697 413.135C240.097 414.335 239.83 413.535 239.697 408.202C239.564 402.869 239.297 402.335 238.497 405.002C237.43 408.335 237.43 408.335 237.164 404.335C237.03 402.069 236.497 399.135 235.964 397.669C235.03 395.269 234.764 395.402 233.564 399.002C232.23 402.869 232.097 402.602 231.164 395.002C230.364 389.135 229.83 387.669 229.03 389.669C228.364 391.669 227.964 390.735 227.83 386.335C227.697 380.735 227.564 380.469 225.83 382.869C223.297 386.202 223.297 385.402 225.83 378.335C227.964 372.202 227.697 369.669 225.164 374.202C221.964 380.335 221.43 376.469 224.364 367.935C230.897 349.669 230.23 345.669 220.764 344.069C216.63 343.402 215.83 343.802 212.364 348.869C210.097 352.069 206.764 354.869 203.964 355.802C195.83 358.602 183.83 354.469 183.83 349.002C183.83 347.269 181.964 345.669 177.964 343.802C172.23 341.269 169.43 337.269 171.164 334.202C171.697 333.402 172.63 328.735 173.164 323.935C174.23 315.802 174.764 314.602 179.564 310.202C182.497 307.669 190.097 301.935 196.364 297.535C204.764 291.669 208.097 288.602 209.164 285.269C210.097 282.869 211.83 280.202 213.03 279.402C215.03 278.202 214.764 277.535 210.497 273.269C206.63 269.269 206.23 268.335 208.23 267.935C209.564 267.669 212.764 268.735 215.297 270.202C220.897 273.535 222.097 273.669 219.83 271.002C216.764 267.402 205.297 265.002 190.364 265.002C178.897 265.002 174.364 264.469 168.23 262.069C134.497 249.535 98.3636 209.669 96.0969 182.869C95.5636 175.802 95.8302 174.069 97.2969 174.602C98.2302 174.869 99.6969 178.069 100.63 181.535C105.43 200.469 127.83 228.202 133.697 222.335C134.63 221.402 135.164 214.069 135.164 201.269C135.164 183.935 135.564 180.735 138.23 174.069C141.297 166.602 143.297 163.935 144.764 165.402C145.164 165.802 144.497 170.335 143.297 175.535C139.164 193.402 141.164 214.202 147.297 216.602C150.364 217.802 151.43 215.402 152.364 204.469C152.897 199.269 154.23 191.269 155.297 186.602C157.43 176.869 165.697 158.335 167.697 158.335C169.697 158.335 169.564 158.735 165.964 170.869C158.63 194.869 158.63 213.535 165.964 207.535C167.164 206.602 171.564 198.869 175.83 190.335C183.697 174.602 192.364 162.202 197.297 159.669C198.764 158.735 200.23 158.335 200.63 158.602C200.897 158.869 198.097 163.269 194.23 168.469C182.497 184.335 175.83 202.335 181.697 202.335C183.964 202.335 194.63 193.935 201.03 187.135C205.564 182.469 207.83 181.269 207.83 183.402C207.83 183.935 202.23 191.535 195.297 200.202C180.897 218.202 178.23 223.002 177.43 232.469C176.764 240.202 179.297 246.335 184.497 249.802C189.43 253.002 191.297 250.602 192.23 240.202C192.764 235.135 194.497 228.202 196.497 223.935C201.03 213.935 203.297 216.202 199.83 227.535C196.497 237.935 196.497 245.535 199.564 251.669C201.297 255.402 203.297 256.869 208.497 258.602C217.697 261.669 220.764 261.402 211.964 258.202C204.364 255.535 201.164 253.535 201.164 251.402C201.164 250.469 201.697 250.469 202.897 251.402C203.697 252.069 207.964 253.669 212.364 254.869C216.63 256.202 223.43 258.602 227.564 260.469C234.097 263.402 235.297 263.535 236.897 261.802C238.63 260.069 237.964 258.869 231.03 252.202C226.764 248.069 218.23 241.135 212.23 236.735C206.097 232.335 201.164 228.469 201.164 228.069C201.164 227.802 202.497 227.669 204.097 227.935C206.63 228.335 207.43 227.135 209.964 219.935C212.764 211.535 215.164 207.802 216.497 209.135C216.897 209.535 215.83 215.135 214.097 221.535L211.164 233.135L214.497 235.669C219.297 239.402 220.497 239.002 222.897 233.002C223.964 230.069 225.697 227.669 226.63 227.669C228.097 227.669 227.964 229.802 225.83 239.669C225.164 242.469 226.497 244.469 234.364 252.202C243.297 261.002 244.097 261.535 251.43 262.469C260.764 263.535 267.164 260.869 265.83 256.335C264.097 250.069 262.497 235.269 263.297 232.202C264.897 225.935 267.697 228.735 271.297 240.335C273.164 246.469 275.564 252.202 276.63 253.135C278.63 254.735 285.964 253.002 291.564 249.535C293.164 248.469 294.497 248.202 294.497 248.869C294.497 250.869 289.03 254.202 283.43 255.802C277.43 257.402 274.097 255.402 271.03 248.335C270.097 246.069 269.297 245.269 269.164 246.469C269.164 250.202 275.03 257.669 278.497 258.069C283.03 258.735 291.297 255.802 294.497 252.335C295.964 250.869 297.697 246.735 298.364 243.135C299.43 237.402 299.03 232.069 296.364 211.935C295.564 206.202 295.83 205.002 297.564 205.002C300.897 205.002 303.964 215.135 304.764 229.535C305.164 237.002 306.097 244.335 306.63 245.935C309.03 252.602 318.097 248.202 323.564 237.802C326.497 232.069 327.164 229.002 327.564 217.002C327.83 209.269 327.164 196.069 326.097 187.669C324.23 173.002 324.764 167.935 327.697 171.002C329.697 173.135 336.897 203.135 338.63 216.602C341.03 235.269 344.23 237.402 351.697 225.535C357.297 216.869 359.83 204.202 359.83 185.002C359.83 173.002 360.23 168.869 361.43 169.269C364.23 170.202 365.43 177.269 366.23 198.869C366.897 212.869 367.697 220.335 368.63 220.602C373.43 222.202 379.83 206.335 380.764 191.002L381.297 180.335L370.897 168.335C348.764 143.002 323.164 127.269 290.63 118.735C275.03 114.735 245.964 113.135 230.497 115.535C183.83 122.735 141.564 152.602 117.83 195.002L112.764 204.069L109.697 198.869C107.964 196.069 106.497 193.135 106.497 192.469C106.497 189.802 124.097 165.002 132.497 156.069C157.964 128.469 194.23 109.002 229.964 103.802C242.764 101.935 263.164 102.202 278.23 104.469ZM103.83 116.469C103.83 118.335 104.764 121.535 105.83 123.535C107.43 126.735 108.897 127.402 114.497 128.202C121.43 129.135 122.497 130.202 119.164 133.002C117.83 134.069 115.03 134.335 110.63 133.669C102.497 132.602 100.364 134.735 105.697 139.002C108.097 140.869 109.03 142.602 108.364 144.069C106.897 147.802 104.764 146.735 95.2969 137.135C87.2969 129.002 86.2302 127.535 87.8302 125.669C89.4302 123.802 89.9636 123.935 93.8302 127.669C97.6969 131.402 98.2302 131.535 99.8302 129.669C101.297 127.802 101.297 126.869 99.4302 123.669C96.6302 119.002 96.6302 117.135 99.2969 114.202C102.097 111.135 103.83 112.069 103.83 116.469ZM424.097 121.935C426.897 124.602 429.164 127.669 429.164 128.469C429.164 131.935 426.23 131.802 422.63 128.469C419.564 125.535 418.63 125.269 417.297 126.735C416.097 128.202 416.497 129.402 418.63 132.202C420.764 134.869 421.164 136.202 419.964 137.402C418.897 138.469 417.564 137.935 414.764 135.269C411.297 131.935 410.764 131.802 409.164 133.669C407.83 135.269 408.097 136.469 411.03 140.202C413.964 144.202 414.23 145.002 412.364 146.335C411.297 147.269 410.364 147.802 410.097 147.535C409.964 147.269 407.43 144.469 404.497 141.269L399.297 135.669L408.497 126.335C413.564 121.135 418.097 117.002 418.364 117.002C418.764 117.002 421.297 119.269 424.097 121.935ZM401.83 194.602C405.164 200.869 407.83 206.869 407.83 207.935C407.83 209.002 406.097 211.402 404.097 213.402L400.364 217.002L394.764 205.669C389.697 195.402 389.164 193.402 389.164 184.602L389.297 175.002L392.497 179.002C394.364 181.135 398.497 188.202 401.83 194.602ZM186.764 193.002C186.097 197.002 185.03 199.135 183.43 199.402C181.43 199.802 181.43 199.402 183.164 194.069C184.364 190.869 185.564 187.402 185.964 186.335C187.43 182.869 187.83 186.735 186.764 193.002ZM165.297 199.535C165.564 203.402 165.164 205.669 164.097 206.069C162.897 206.469 162.497 204.202 162.497 198.069C162.63 188.602 164.63 189.669 165.297 199.535ZM197.697 209.935C196.364 215.669 195.03 220.735 194.497 221.269C194.097 221.802 191.697 221.002 189.164 219.402C184.63 216.602 184.497 216.469 187.697 215.802C189.83 215.135 191.43 213.402 192.63 210.069C194.497 204.602 198.497 197.935 199.43 198.869C199.83 199.269 199.03 204.202 197.697 209.935ZM105.03 209.935L108.097 214.735L104.764 226.202C99.0302 245.135 97.9636 252.735 97.9636 272.335C97.9636 301.002 103.297 322.602 115.964 346.069C140.764 392.335 182.63 421.135 235.43 428.469C250.764 430.602 252.897 430.602 269.83 428.602C309.43 423.669 337.83 409.669 364.497 382.202C388.097 357.802 400.364 334.869 407.297 302.335C410.63 286.602 410.364 256.869 406.764 240.469L404.097 228.469L407.697 224.069C409.564 221.669 411.564 219.669 411.964 219.669C413.297 219.669 417.03 233.269 419.297 246.335C422.497 265.135 421.297 294.335 416.497 312.869C400.364 375.135 352.497 422.335 290.63 437.135C273.964 441.135 245.564 442.069 227.697 439.002C156.764 427.135 100.764 371.802 88.4969 301.402C84.8969 280.735 86.4969 247.402 91.9636 229.002C94.3636 220.735 100.364 205.002 101.164 205.002C101.564 205.002 103.297 207.269 105.03 209.935ZM219.297 243.802C221.83 246.735 221.83 246.735 218.897 245.135C217.164 244.335 215.83 243.002 215.83 242.335C215.83 240.335 216.497 240.735 219.297 243.802ZM317.164 244.202C314.364 247.002 307.83 247.535 307.83 245.135C307.83 243.669 310.897 242.735 315.83 242.469C318.63 242.335 318.764 242.602 317.164 244.202ZM233.83 258.335C235.164 259.802 235.964 261.002 235.564 261.002C235.164 261.002 233.83 259.802 232.497 258.335C231.164 256.869 230.364 255.669 230.764 255.669C231.164 255.669 232.497 256.869 233.83 258.335ZM472.497 269.669C475.03 272.069 475.83 274.335 475.83 278.469C475.83 286.069 471.964 290.335 465.03 290.335C458.23 290.335 456.097 289.269 453.83 284.869C450.764 279.135 451.43 274.602 455.697 270.202C460.764 265.135 467.83 264.869 472.497 269.669ZM57.2969 272.869C65.6969 281.402 60.3636 294.335 48.4969 294.335C37.0302 294.335 31.5636 281.002 39.6969 272.869C42.6302 270.069 44.8969 269.002 48.4969 269.002C52.0969 269.002 54.3636 270.069 57.2969 272.869ZM449.297 325.935C451.164 328.202 454.897 330.735 457.564 331.802C462.63 333.535 463.03 334.069 461.697 337.402C461.03 339.269 460.23 339.269 455.964 337.669C451.697 336.202 449.43 336.202 442.364 337.802C431.43 340.069 431.964 340.069 432.764 336.869C433.564 333.802 438.097 331.669 443.564 331.669H447.03L442.63 327.135C438.897 323.269 438.364 321.935 439.164 318.735L440.097 315.002L442.897 318.335C444.497 320.202 447.43 323.669 449.297 325.935ZM77.5636 323.669C82.3636 327.402 84.4969 334.735 82.4969 339.669C81.6969 341.802 80.0969 343.802 79.1636 344.202C76.7636 345.135 75.2969 340.469 77.0302 337.269C78.6302 334.202 76.2302 329.002 72.3636 327.535C69.1636 326.469 64.0969 328.469 62.0969 331.802C60.0969 335.002 62.0969 340.869 65.6969 342.335C69.2969 343.669 71.1636 347.535 68.7636 348.469C65.8302 349.535 60.0969 346.735 57.8302 343.135C53.2969 336.202 55.9636 325.135 62.8969 322.335C67.9636 320.335 73.9636 320.869 77.5636 323.669ZM137.164 351.269C138.097 355.935 139.43 359.669 140.097 359.669C140.764 359.669 140.897 360.335 140.497 361.002C139.964 361.802 138.897 361.935 138.097 361.402C137.164 360.869 137.297 361.535 138.364 362.869C140.23 365.135 141.297 371.802 139.83 371.535C138.097 371.402 130.497 360.335 131.03 358.735C131.43 357.802 131.164 357.002 130.364 357.002C129.564 357.002 129.564 355.935 130.497 354.202C131.43 352.735 131.697 349.935 131.297 348.202C130.764 346.335 131.03 345.002 131.83 345.002C132.497 345.002 133.164 343.669 133.164 341.935C133.164 336.869 135.43 341.935 137.164 351.269ZM96.0969 360.602C103.43 367.669 101.83 378.469 92.6302 382.869C86.8969 385.535 84.4969 385.535 79.6969 382.735C71.6969 378.069 69.9636 367.135 76.2302 361.269C83.0302 354.869 89.8302 354.735 96.0969 360.602ZM161.564 368.469C161.164 369.535 161.697 370.335 163.03 370.335C164.23 370.335 165.164 370.869 165.164 371.669C165.164 372.335 164.63 373.002 163.964 373.002C163.297 373.002 163.43 374.735 164.23 377.002C165.03 379.135 166.23 381.002 166.897 381.002C167.564 381.002 167.43 381.802 166.63 382.869C165.297 384.335 165.564 385.135 167.83 386.735C170.897 388.869 169.43 390.869 165.83 389.402C162.364 388.069 163.964 391.935 167.697 393.802C169.697 394.869 170.23 395.669 169.164 396.335C167.697 397.269 153.164 387.135 153.164 385.135C153.164 384.469 153.964 383.535 154.897 383.269C155.697 382.869 154.897 382.469 152.897 382.469C148.897 382.335 147.964 380.469 151.164 379.135C152.23 378.735 153.03 377.935 152.897 377.402C152.764 376.869 153.164 374.602 153.83 372.602C154.497 370.202 154.23 368.202 153.297 367.269C151.164 365.135 151.564 363.669 154.364 363.669C156.23 363.669 157.297 362.335 157.964 359.269L158.897 355.002L160.63 360.869C161.564 364.069 161.964 367.402 161.564 368.469ZM451.564 359.002C453.164 360.469 449.964 365.002 447.43 365.002C443.697 365.002 439.564 371.935 440.63 376.335C441.03 378.069 440.897 380.469 440.097 381.802C439.03 383.669 437.43 381.935 430.097 371.669C425.297 364.735 421.697 358.602 422.097 357.935C422.764 356.869 450.364 357.802 451.564 359.002ZM187.297 374.469C187.83 377.269 188.764 379.669 189.564 379.669C190.23 379.669 190.23 380.469 189.297 381.535C188.23 382.735 188.097 383.669 189.03 384.202C189.83 384.735 190.097 386.869 189.697 388.869C189.03 391.935 189.43 392.869 191.697 393.669C195.297 394.735 195.43 397.535 191.83 396.602C190.097 396.202 189.164 396.602 189.164 397.802C189.164 398.735 190.364 400.202 191.83 401.002C193.297 401.802 194.497 403.002 194.497 403.669C194.497 404.469 193.297 405.002 191.83 405.002C190.364 405.002 189.164 405.535 189.164 406.335C189.164 407.002 190.364 407.669 191.83 407.669C193.297 407.669 194.497 408.602 194.497 409.669C194.497 410.735 195.164 411.669 196.097 411.669C196.897 411.669 197.297 412.069 196.897 412.469C195.83 413.402 177.164 403.935 177.164 402.335C177.164 401.669 178.23 400.469 179.564 399.802C180.764 399.002 181.03 398.335 180.23 398.335C179.297 398.335 178.497 397.135 178.497 395.802C178.497 394.335 179.297 392.869 180.23 392.602C181.03 392.202 180.497 391.802 178.897 391.802C175.164 391.669 175.164 391.002 178.497 387.669C181.297 384.869 181.964 380.335 179.83 379.002C177.697 377.669 178.23 376.069 181.164 375.269C183.03 374.869 183.83 373.402 183.83 371.002C183.83 365.802 186.364 368.202 187.297 374.469ZM412.897 378.602C414.097 379.802 413.964 380.735 412.097 382.735C409.697 385.535 409.564 385.402 422.364 396.069C426.497 399.535 426.764 400.069 424.764 401.935C422.897 403.802 421.964 403.269 414.364 397.002L406.097 390.069L403.697 393.135C401.83 395.669 401.03 395.935 399.297 394.469C397.564 393.002 397.964 391.802 403.564 384.869C407.03 380.602 410.097 377.002 410.63 377.002C411.03 377.002 411.964 377.669 412.897 378.602ZM117.564 390.469C122.497 393.002 125.164 397.402 125.164 403.002C125.164 415.935 110.897 421.669 101.697 412.469C95.4302 406.202 95.4302 399.802 101.697 393.535C106.497 388.735 111.964 387.669 117.564 390.469ZM393.83 406.335C393.83 407.402 392.364 408.602 390.497 408.735C386.097 409.402 383.83 411.402 383.83 414.469C383.83 417.669 386.23 417.669 390.497 414.335C399.697 407.135 409.697 416.202 402.497 425.269C398.764 430.069 392.897 432.335 389.164 430.335C386.897 429.135 386.63 428.469 387.964 426.869C388.764 425.802 390.764 425.002 392.497 425.002C396.364 425.002 400.097 420.869 398.497 418.335C397.43 416.602 396.497 416.735 391.964 419.269C385.297 423.135 381.83 423.135 379.297 419.402C376.23 415.002 376.63 411.935 381.164 407.535C384.23 404.335 386.097 403.535 389.43 403.935C392.23 404.202 393.83 405.002 393.83 406.335ZM149.697 418.869C152.364 421.269 154.497 424.602 154.497 426.202C154.497 429.535 148.897 435.669 145.83 435.669C144.364 435.669 143.83 437.135 143.83 441.002C143.83 446.869 143.564 447.002 139.697 444.869C137.43 443.669 137.164 442.602 137.83 438.469C138.497 434.735 138.097 433.002 136.497 431.669C134.63 430.069 134.097 430.069 133.03 431.669C129.43 437.802 129.43 437.802 127.03 435.402C125.03 433.402 125.297 432.469 132.364 422.469C140.897 410.469 140.897 410.469 149.697 418.869ZM349.697 433.669C350.097 435.002 348.897 436.335 346.097 437.802C340.63 440.602 341.03 440.202 341.964 442.735C342.63 444.602 343.164 444.602 347.43 442.735C351.43 441.135 352.364 441.135 353.297 442.602C355.164 445.402 354.764 445.935 350.497 447.535C346.63 448.869 345.164 452.069 347.83 453.669C348.497 454.069 351.164 453.535 353.697 452.469C357.697 450.735 358.364 450.735 359.03 452.602C359.43 453.669 359.564 455.002 359.297 455.535C358.497 456.869 345.297 462.869 344.63 462.202C342.764 460.069 333.297 437.669 334.097 437.269C334.63 437.135 337.564 435.802 340.497 434.469C347.164 431.269 348.63 431.135 349.697 433.669ZM183.964 438.202C186.23 440.469 187.83 443.535 187.83 445.535C187.83 449.802 185.297 449.002 181.297 443.669C177.83 438.869 173.03 438.469 169.03 442.469C163.297 448.202 169.297 459.269 176.63 456.469C179.03 455.535 178.897 455.402 175.83 453.002C173.164 451.002 172.897 450.069 174.097 448.869C175.43 447.535 176.897 447.802 181.164 449.669C184.097 451.002 186.497 452.602 186.497 453.269C186.497 456.202 178.497 462.335 174.764 462.335C166.23 462.335 158.497 453.269 160.497 445.402C163.164 434.735 176.364 430.735 183.964 438.202ZM323.83 455.269C327.697 470.202 327.697 469.535 324.364 470.069C321.964 470.469 321.297 469.402 319.83 464.069L318.23 457.669L316.097 461.935C313.83 466.735 311.697 467.402 309.164 464.335C306.63 461.269 304.764 461.935 305.697 465.669C306.097 467.535 306.897 470.469 307.297 472.335C307.964 475.135 307.697 475.669 304.897 475.669C301.964 475.669 301.43 474.602 298.497 463.002C296.764 456.069 295.697 450.069 296.23 449.535C296.63 449.135 300.097 451.002 303.83 453.669C311.43 459.269 311.297 459.402 315.43 449.402C316.764 446.202 318.497 443.669 319.297 443.669C320.097 443.669 322.097 448.869 323.83 455.269ZM226.764 455.669C226.364 459.535 226.764 461.002 227.964 461.002C229.03 461.002 231.164 461.402 232.764 461.802C235.43 462.469 235.83 461.935 236.63 457.135C237.564 451.669 238.097 451.135 241.564 452.335C243.164 453.002 243.164 454.869 241.697 465.402C240.764 472.202 239.964 478.202 239.83 478.735C239.83 479.402 238.497 479.669 236.897 479.402C234.23 479.002 233.964 478.335 234.23 473.535C234.63 468.735 234.23 467.935 231.564 467.135C226.097 465.669 225.164 466.202 224.364 471.669C223.564 476.069 223.03 477.002 220.364 477.002C217.697 477.002 217.297 476.469 217.83 473.269C218.897 467.402 221.164 452.469 221.164 451.269C221.164 450.735 222.497 450.335 224.23 450.335C226.897 450.335 227.164 450.869 226.764 455.669ZM279.964 456.869C287.83 464.869 283.697 478.335 272.764 480.335C262.497 482.335 253.964 472.469 257.03 462.069C259.03 455.669 262.897 453.002 270.23 453.002C274.897 453.002 276.764 453.802 279.964 456.869Z" fill="white"/>
<path d="M311.297 70.6013C309.03 78.6013 309.297 79.668 314.364 79.668C321.564 79.668 325.297 70.6013 320.097 65.9346C315.697 61.9346 313.564 63.1346 311.297 70.6013Z" fill="white"/>
<path d="M201.164 63.2679C200.097 63.6679 198.497 64.0679 197.564 64.3346C196.364 64.7346 196.23 65.9346 197.297 69.0012C198.897 73.2679 199.964 73.8012 203.964 71.6679C208.497 69.1346 206.097 61.8012 201.164 63.2679Z" fill="white"/>
<path d="M162.23 77.0028C160.23 78.2028 160.23 79.0028 161.43 82.0694C162.364 84.0694 163.164 85.8028 163.297 86.0694C163.43 86.2028 165.03 85.6694 167.03 84.8694C169.83 83.5361 170.497 82.3361 170.23 79.8028C169.83 75.9361 166.097 74.7361 162.23 77.0028Z" fill="white"/>
<path d="M351.297 86.2024C349.03 88.6024 349.03 88.869 351.564 90.2024C353.83 91.4024 354.23 91.1357 354.764 87.669C355.43 83.0024 354.497 82.6024 351.297 86.2024Z" fill="white"/>
<path d="M385.83 101.268C383.964 104.068 383.964 104.468 386.764 106.602C390.23 109.268 391.697 109.135 393.697 105.935C394.764 104.335 394.364 103.135 392.63 101.135C389.43 97.6683 388.497 97.6683 385.83 101.268Z" fill="white"/>
<path d="M267.964 241.802C267.964 243.269 268.364 243.669 268.764 242.602C269.164 241.669 269.03 240.469 268.63 240.069C268.23 239.536 267.83 240.336 267.964 241.802Z" fill="white"/>
<path d="M219.964 261.535C221.03 262.602 230.497 266.202 230.497 265.535C230.497 265.135 228.364 263.935 225.83 262.869C221.43 261.002 218.764 260.469 219.964 261.535Z" fill="white"/>
<path d="M240.497 264.736C236.097 266.203 233.697 268.203 231.964 271.269C231.03 273.136 229.164 274.336 227.297 274.336C223.03 274.336 217.43 279.003 215.297 284.336C213.297 288.869 212.897 289.269 197.03 299.669C186.23 306.736 177.164 315.536 177.164 319.136C177.164 320.603 179.164 319.003 182.63 315.136C185.697 311.669 190.63 307.669 193.697 306.069L199.164 303.269L193.564 309.403C189.964 313.269 187.83 316.869 187.83 319.003C187.83 322.869 189.43 323.269 191.964 320.203C194.097 317.669 200.364 314.336 203.164 314.336C204.497 314.336 205.164 315.669 205.164 318.336C205.164 321.403 203.697 323.936 199.03 328.469C192.497 334.736 192.364 338.336 198.63 335.803C203.83 333.936 205.297 331.136 206.097 322.336C206.497 317.936 207.297 314.336 207.83 314.336C209.03 314.336 213.697 319.536 215.564 323.003C216.897 325.403 217.03 325.269 217.164 321.269C217.164 315.669 214.097 311.003 209.164 309.003C201.83 305.936 205.164 301.403 217.83 297.003C222.23 295.536 229.43 291.936 233.83 289.003C238.364 286.069 242.364 283.669 242.897 283.669C243.43 283.669 243.83 284.869 243.83 286.336C243.83 289.803 245.43 289.803 247.564 286.336C250.23 281.936 255.164 280.736 260.764 283.003C263.43 284.069 265.83 284.736 266.23 284.336C266.63 284.069 265.03 281.669 262.63 279.003C259.964 275.936 258.497 272.869 258.497 270.336C258.497 267.403 257.83 266.336 256.23 266.336C254.23 266.336 254.097 266.603 255.697 267.536C257.297 268.603 256.897 269.003 253.83 269.803C248.097 271.269 241.964 271.136 241.164 269.669C240.764 268.869 243.164 267.669 246.497 266.736C249.83 265.936 251.564 265.136 250.497 265.136C249.43 265.003 247.297 264.736 245.83 264.469C244.364 264.069 241.964 264.336 240.497 264.736Z" fill="white"/>
<path d="M250.364 288.602C248.764 290.469 248.764 290.736 250.364 289.669C251.43 289.136 254.097 288.069 256.364 287.536L260.497 286.602L256.364 286.469C253.83 286.336 251.43 287.269 250.364 288.602Z" fill="white"/>
<path d="M254.497 292.603C252.63 293.536 252.097 294.336 253.164 294.336C255.43 294.336 259.43 292.069 258.497 291.269C258.097 291.003 256.364 291.536 254.497 292.603Z" fill="white"/>
<path d="M284.764 303.268C292.897 325.401 293.564 328.468 292.897 340.468C292.364 350.335 291.697 352.735 286.23 363.535C282.764 370.201 280.23 375.668 280.364 375.668C280.63 375.668 282.497 373.135 284.497 370.201C286.764 366.735 288.497 365.268 289.03 366.201C289.564 367.001 291.43 363.001 293.164 357.268L296.364 347.001L297.164 352.335L297.964 357.668L300.497 349.668C304.097 338.735 303.83 323.801 300.097 315.268C298.63 311.801 297.03 309.001 296.63 309.001C296.364 309.001 296.897 312.201 297.964 315.935C300.23 324.735 301.83 339.801 300.097 337.001C299.43 335.935 298.23 331.401 297.297 327.001C295.564 318.868 282.897 290.335 281.03 290.335C280.364 290.335 282.097 296.201 284.764 303.268Z" fill="white"/>
<path d="M274.497 291.935C274.497 292.468 275.43 296.335 276.497 300.602C278.764 308.735 279.43 328.468 278.097 341.002C277.43 346.735 277.43 347.535 278.497 344.335C281.83 334.335 282.497 319.002 280.497 306.868C279.297 300.335 277.564 294.068 276.497 293.002C275.43 291.935 274.497 291.535 274.497 291.935Z" fill="white"/>
<path d="M241.164 297.002C241.164 297.669 239.164 300.469 236.897 303.135C232.897 307.535 232.897 307.935 235.83 306.335C241.564 303.269 246.364 295.669 242.497 295.669C241.83 295.669 241.164 296.202 241.164 297.002Z" fill="white"/>
<path d="M258.497 297.001C257.43 297.668 255.03 298.335 253.164 298.335C251.297 298.335 248.897 299.001 247.83 299.801C246.364 300.868 247.297 301.001 251.697 300.601C254.897 300.201 258.497 298.868 259.697 297.801C261.964 295.401 261.43 295.001 258.497 297.001Z" fill="white"/>
<path d="M266.897 317.269C264.63 327.669 261.83 331.536 253.564 335.136C245.297 338.869 244.63 340.469 246.23 353.402C246.897 358.336 246.897 366.202 246.23 370.602C244.897 380.202 245.564 381.802 247.964 374.736C249.43 370.202 249.697 361.402 248.764 345.802C248.497 340.736 248.764 340.469 255.564 336.869C259.564 334.869 263.564 332.069 264.497 330.736C267.164 327.269 269.43 318.069 268.897 313.536C268.63 310.469 268.23 311.136 266.897 317.269Z" fill="white"/>
<path d="M307.83 321.402C307.83 323.402 312.097 327.535 321.164 334.469L327.164 339.002L319.964 330.602C312.364 321.669 307.83 318.202 307.83 321.402Z" fill="white"/>
<path d="M315.83 340.069C322.364 354.602 324.097 375.402 320.63 396.335C319.564 402.202 318.897 407.135 319.164 407.402C319.297 407.535 320.897 404.602 322.497 400.735C325.03 395.002 325.564 391.402 325.43 381.669C325.43 370.602 325.564 369.802 327.43 372.335C328.764 373.935 329.297 374.202 328.764 373.002C328.497 371.802 326.764 366.069 325.164 360.335C323.564 354.469 321.297 347.935 320.23 345.802L318.097 341.802L321.697 344.069C326.63 347.269 326.097 346.469 319.03 339.669L313.03 333.669L315.83 340.069Z" fill="white"/>
<path d="M209.697 339.935L207.164 343.002L210.23 340.469C213.03 338.069 213.83 337.002 212.764 337.002C212.497 337.002 211.164 338.335 209.697 339.935Z" fill="white"/>
<path d="M81.4302 364.469C75.4302 368.603 79.1636 378.336 86.7636 378.336C93.5636 378.336 97.1636 369.136 92.0969 364.603C89.0302 361.803 85.2969 361.669 81.4302 364.469Z" fill="white"/>
<path d="M432.63 365.668C435.164 369.534 436.497 369.934 437.697 366.868C438.764 364.201 438.764 364.334 434.097 363.134C430.364 362.201 430.364 362.201 432.63 365.668Z" fill="white"/>
<path d="M107.697 396.335C101.297 399.802 102.23 408.735 109.164 411.002C112.23 411.935 118.097 408.869 119.43 405.535C120.63 402.202 118.63 397.535 115.164 395.935C111.03 394.069 111.964 394.069 107.697 396.335Z" fill="white"/>
<path d="M139.43 422.868C137.43 425.935 137.43 426.202 140.497 428.202C146.497 432.202 150.764 426.735 145.43 421.935C142.23 419.002 141.83 419.002 139.43 422.868Z" fill="white"/>
<path d="M264.764 460.735C262.097 463.669 261.83 468.869 264.23 472.202C266.897 475.802 274.497 474.602 277.03 470.202C281.297 462.469 270.764 454.202 264.764 460.735Z" fill="white"/>
</svg>
